<svg width="76" height="26" viewBox="0 0 76 26" fill="none" xmlns="http://www.w3.org/2000/svg">
<path d="M75.4531 4.42082H72.7314V1.14172C72.7314 0.967988 72.6539 0.807715 72.5187 0.701799C72.3876 0.59893 72.2194 0.562355 72.0594 0.602486L69.6649 1.19176C69.4197 1.25221 69.2485 1.47395 69.2485 1.73125V4.42082H67.8839C67.5826 4.42082 67.3374 4.67075 67.3374 4.97809V6.96256C67.3374 7.2699 67.5826 7.52008 67.8842 7.52008H69.2485V15.5263C69.2795 18.9296 71.457 19.3985 73.8053 19.3985C74.0375 19.3985 74.2697 19.3919 74.5055 19.3848C74.7435 19.3777 74.9849 19.3703 75.2336 19.3703L75.2613 19.3685C75.5814 19.3274 75.7801 19.1036 75.7801 18.7846V16.6581C75.7801 16.3508 75.5349 16.1011 75.2336 16.1011H74.4097C73.2176 16.1011 72.7314 15.5725 72.7314 14.2769V7.52008H75.4531C75.7547 7.52008 75.9996 7.2699 75.9996 6.96256V4.97809C75.9996 4.67075 75.7547 4.42082 75.4531 4.42082Z" fill="#333332"/>
<path d="M60.8117 4.19397C59.3864 4.19397 58.2696 4.63313 57.4858 5.50002V4.97806C57.4858 4.66031 57.2508 4.42079 56.9391 4.42079H54.4125C54.1005 4.42079 53.8655 4.66031 53.8655 4.97806V18.7845C53.8655 19.1023 54.1005 19.3421 54.4125 19.3421H56.9391C57.2508 19.3421 57.4858 19.1023 57.4858 18.7845V10.1377C57.4858 8.53808 58.4581 7.46316 59.9055 7.46316C61.3582 7.46316 62.2974 8.5241 62.2974 10.1659V18.7845C62.2974 19.1023 62.5322 19.3421 62.8439 19.3421H65.3708C65.6825 19.3421 65.9175 19.1023 65.9175 18.7845V9.48574C65.9175 6.27115 63.9135 4.19397 60.8117 4.19397Z" fill="#333332"/>
<path d="M48.0708 10.4025H42.6929C42.7244 9.92829 42.7854 9.59707 42.8939 9.30676L42.8989 9.29177C43.249 8.09545 44.0887 7.46325 45.327 7.46325C46.6605 7.46325 47.6049 8.18841 47.9217 9.46754C47.989 9.6748 48.0416 10.0091 48.0708 10.4025ZM45.327 4.19406C42.3921 4.19406 40.1683 5.85316 39.3792 8.62732C39.1206 9.45534 39.0096 10.4889 39.04 11.782C39.04 13.372 39.2522 14.6516 39.6864 15.6884C40.6475 18.1524 42.7468 19.5408 45.5991 19.5969C45.6339 19.5974 45.6687 19.5977 45.7038 19.5977C48.0779 19.5977 50.1142 18.616 51.3047 16.8893C51.4732 16.6282 51.4295 16.3668 51.1805 16.1527L49.4786 14.708C49.3203 14.5716 49.1729 14.5589 49.0766 14.5701C48.975 14.5833 48.8256 14.6397 48.6905 14.8347C48.0134 15.8256 47.0757 16.3277 45.907 16.3277C44.3125 16.3021 43.2999 15.6567 42.889 14.388C42.7681 14.1131 42.715 13.7139 42.6683 13.2752H51.1772C51.5032 13.2752 51.7224 13.0527 51.7239 12.721C51.7526 11.7629 51.7486 11.0106 51.6401 10.2265C51.1785 6.22349 49.0545 4.19406 45.327 4.19406Z" fill="#333332"/>
<path d="M33.2751 11.7541C33.2751 13.3174 33.2159 13.7208 33.0897 14.2163C32.8021 15.403 31.9319 16.0837 30.7018 16.0837C29.4858 16.0837 28.5407 15.3702 28.1683 14.161C28.0504 13.8562 27.9097 13.1965 27.9097 11.7823C27.9097 10.6647 28.0087 9.90118 28.2267 9.3655C28.6289 8.15012 29.5211 7.4529 30.6743 7.4529C31.8956 7.4529 32.7881 8.16079 33.0648 9.35788C33.2141 9.87247 33.2751 10.2331 33.2751 11.7541ZM36.3375 4.42069H33.8206C33.5096 4.42069 33.2751 4.6597 33.2751 4.97669V5.35134C32.4395 4.5736 31.3527 4.19489 29.963 4.19489C27.5042 4.19489 25.4961 5.70261 24.7243 8.12421C24.3254 9.26441 24.2743 10.6782 24.2743 11.7823C24.2743 13.2316 24.3897 14.3352 24.6392 15.2618C25.5093 18.166 28.0588 19.2005 30.1545 19.2005C31.4604 19.2005 32.5094 18.8322 33.2746 18.1078C33.2604 19.3214 32.9423 20.1949 32.3036 20.7763C31.467 21.5375 30.0511 21.8113 27.9544 21.6147C27.4125 21.6147 27.354 21.9835 27.354 22.1344L27.272 24.458C27.272 24.7831 27.4551 25.0008 27.7676 25.0414C28.2869 25.095 28.792 25.1219 29.2795 25.1219C31.6248 25.1219 33.5777 24.5055 34.8754 23.3361C36.2075 22.1352 36.8828 20.3763 36.8828 18.1081V4.97669C36.8828 4.6597 36.6483 4.42069 36.3375 4.42069Z" fill="#333332"/>
<path d="M23.047 4.47921C22.6631 4.32554 22.2401 4.25087 21.7536 4.25087C20.4615 4.25087 19.4094 4.77613 18.6198 5.81345V4.97831C18.6198 4.67098 18.3746 4.42079 18.0731 4.42079H15.5462C15.2446 4.42079 14.9994 4.67072 14.9994 4.97806V18.7845C14.9994 19.0919 15.2449 19.3421 15.5464 19.3421H18.0731C18.3746 19.3421 18.6198 19.0919 18.6198 18.7845V10.7616C18.6198 9.03184 19.8687 8.18578 21.1246 8.11314C21.5605 8.05192 21.8072 8.07199 22.0854 8.12711C22.3959 8.18857 22.689 7.99808 22.7584 7.69303L23.4286 5.23002C23.4967 4.91659 23.3326 4.59376 23.047 4.47921Z" fill="#333332"/>
<path d="M8.8309 12.8782V14.1353C8.8309 15.6321 7.27962 16.5264 5.77966 16.5264C4.76952 16.5264 3.68977 16.0844 3.68977 14.8439C3.68977 13.5948 4.75173 12.8782 6.60357 12.8782H8.8309ZM6.43894 4.19409C3.64734 4.19409 1.41899 5.47321 0.761995 7.45312C0.706102 7.62152 0.725411 7.80439 0.814586 7.95527C0.898171 8.09649 1.03638 8.19479 1.19491 8.22603L3.68545 8.85086C3.94637 8.89887 4.20602 8.75891 4.30637 8.51812C4.59117 7.83792 5.37748 7.46328 6.52125 7.46328C8.03214 7.46328 8.8309 8.19199 8.8309 9.57094V10.176H5.97198C2.25891 10.176 0.0419922 12.0058 0.0419922 15.071C0.0419922 18.3872 2.59478 19.5688 4.98344 19.5688C6.58553 19.5688 7.90969 19.0923 8.8309 18.1911V18.7847C8.8309 19.092 9.07632 19.3419 9.37789 19.3419H11.9043C12.2058 19.3419 12.4512 19.092 12.4512 18.7847V9.23084C12.4512 6.26518 9.97899 4.19409 6.43894 4.19409Z" fill="#333332"/>
</svg>
