<svg width="262" height="58" viewBox="0 0 262 58" fill="none" xmlns="http://www.w3.org/2000/svg">
<path fill-rule="evenodd" clip-rule="evenodd" d="M164.845 29.2467L187.377 57.2674C187.558 57.4885 187.787 57.6654 188.047 57.7847C188.306 57.9041 188.589 57.9627 188.875 57.9562H201.491C201.805 57.9893 202.121 57.9307 202.402 57.7875C202.683 57.6443 202.916 57.4227 203.074 57.1496C203.231 56.8764 203.306 56.5635 203.289 56.2487C203.272 55.9339 203.164 55.6308 202.978 55.3761L181.998 29.2467C181.484 28.6106 181.217 27.8106 181.245 26.9934C181.273 26.1761 181.595 25.3964 182.151 24.7971L202.585 2.68008C202.8 2.43293 202.935 2.12635 202.972 1.80086C203.009 1.47538 202.946 1.14633 202.792 0.857224C202.638 0.568117 202.4 0.332568 202.109 0.181732C201.818 0.0308958 201.488 -0.0281212 201.163 0.0124753H188.798C188.533 0.00852115 188.269 0.0599386 188.024 0.163465C187.78 0.266991 187.559 0.42036 187.377 0.613782L164.998 24.7862C164.443 25.3883 164.122 26.1696 164.094 26.9881C164.066 27.8065 164.332 28.6079 164.845 29.2467ZM72.3531 0.0125166H64.3722C62.9533 0.0125166 61.803 1.16279 61.803 2.58172V55.3871C61.803 56.806 62.9533 57.9563 64.3722 57.9563H72.3531C73.7721 57.9563 74.9223 56.806 74.9223 55.3871V2.58172C74.9223 1.16279 73.7721 0.0125166 72.3531 0.0125166ZM261.873 31.0836V25.9999C261.873 24.5387 260.688 23.3541 259.227 23.3541H226.254C224.793 23.3541 223.608 24.5387 223.608 25.9999V31.0836C223.608 32.5448 224.793 33.7293 226.254 33.7293H259.227C260.688 33.7293 261.873 32.5448 261.873 31.0836ZM261.873 50.2159V55.2996C261.873 56.7608 260.688 57.9454 259.227 57.9454H226.254C224.793 57.9454 223.608 56.7608 223.608 55.2996V50.2159C223.608 48.7547 224.793 47.5702 226.254 47.5702H259.227C260.688 47.5702 261.873 48.7547 261.873 50.2159ZM261.862 7.742V2.65823C261.862 1.19703 260.677 0.0125166 259.216 0.0125166H226.243C224.782 0.0125166 223.597 1.19703 223.597 2.65823V7.742C223.597 9.2032 224.782 10.3877 226.243 10.3877H259.216C260.677 10.3877 261.862 9.2032 261.862 7.742ZM124.71 0.0125245C132.801 0.0125245 143.613 5.66477 143.799 25.7155V25.8139V55.7697C143.799 56.3496 143.569 56.9058 143.158 57.3158C142.748 57.7259 142.192 57.9563 141.612 57.9563H132.866C132.286 57.9563 131.73 57.7259 131.32 57.3158C130.91 56.9058 130.68 56.3496 130.68 55.7697V28.4378C130.68 13.1319 123.158 13.1319 119.747 13.1319H112.094C111.514 13.1319 110.958 13.3622 110.548 13.7723C110.138 14.1823 109.907 14.7385 109.907 15.3184V55.7697C109.907 56.3496 109.677 56.9058 109.267 57.3158C108.857 57.7259 108.301 57.9563 107.721 57.9563H98.9745C98.3946 57.9563 97.8384 57.7259 97.4284 57.3158C97.0183 56.9058 96.788 56.3496 96.788 55.7697V7.54521C96.7865 6.5556 96.9804 5.57543 97.3584 4.66087C97.7365 3.74632 98.2913 2.91534 98.991 2.21558C99.6908 1.51582 100.522 0.961029 101.436 0.582986C102.351 0.204943 103.331 0.0110851 104.321 0.0125245H124.71ZM12.1758 0.912316C11.5997 0.336183 10.8183 0.0125166 10.0035 0.0125166H3.07211C2.25733 0.0125166 1.47593 0.336183 0.899799 0.912316C0.323666 1.48845 0 2.26985 0 3.08463V32.7125C0 47.3624 7.1063 58 25.2766 58H37.4885C38.3033 58 39.0847 57.6763 39.6608 57.1002C40.237 56.5241 40.5606 55.7426 40.5606 54.9279V47.1765C40.5606 46.3618 40.237 45.5804 39.6608 45.0042C39.0847 44.4281 38.3033 44.1044 37.4885 44.1044H25.9872C15.2622 44.1044 13.0756 39.6657 13.0756 32.6031V3.08463C13.0756 2.26985 12.7519 1.48845 12.1758 0.912316Z" fill="#333333"/>
</svg>
