<?xml version="1.0" encoding="utf-8"?>
<svg version="1.1" id="Layer_1" xmlns="http://www.w3.org/2000/svg" xmlns:xlink="http://www.w3.org/1999/xlink" x="0px" y="0px"
	 viewBox="0 693.6 593.9 95.5" enable-background="new 0 693.6 593.9 95.5" xml:space="preserve">
<path id="WalletConnect" fill="#3999FB" d="M219.7,733.6l-8,29h-8.5L192,720.2h9.2l6.7,30.7h0.3l7.9-30.7h7.4l7.9,30.7h0.3l6.7-30.7
	h9.2l-11.3,42.4h-8.4l-8-29C220,733.6,219.7,733.6,219.7,733.6z M259.8,756.7c3.8,0,6.9-2.4,6.9-5.8v-2.3l-6.6,0.4
	c-3.2,0.3-5,1.7-5,3.9C255,755.3,256.9,756.7,259.8,756.7z M257,763c-6,0-10.5-3.9-10.5-9.6s4.4-9,12.2-9.5l7.9-0.5v-2.1
	c0-2.9-2.1-4.6-5.3-4.6c-3.2,0-5.2,1.6-5.6,3.9h-7.8c0.3-6.1,5.5-10.4,13.8-10.4c8.1,0,13.4,4.1,13.4,10.5v21.7h-8.3v-4.8h-0.2
	C264.8,761.1,261,763,257,763z M280.8,762.5v-42.4h8.6v42.4H280.8L280.8,762.5z M295.3,762.5v-42.4h8.6v42.4H295.3L295.3,762.5z
	 M323.9,736.7c-3.8,0-6.5,2.8-6.8,6.8h13.4C330.3,739.4,327.7,736.7,323.9,736.7z M330.6,752.9h7.9c-0.9,6.1-6.6,10.4-14.3,10.4
	c-9.7,0-15.5-6.2-15.5-16.3s5.8-16.6,15.2-16.6c9.1,0,15,6.2,15,15.7v2.6H317v0.6c0,4.5,2.8,7.6,7.2,7.6
	C327.5,756.8,329.8,755.2,330.6,752.9z M345.4,723.7h8.6v7.2h5.8v6.5H354v15.1c0,2.4,1.1,3.6,3.7,3.6c0.8,0,1.6,0,2.1-0.2v6.3
	c-0.8,0.2-2.4,0.4-4.1,0.4c-7.4,0-10.3-2.4-10.3-8.6v-16.5h-4.4V731h4.4L345.4,723.7L345.4,723.7z M384,763.2
	c-12.3,0-20.1-8.3-20.1-21.9c0-13.7,7.8-21.9,20.1-21.9c10.2,0,18,6.5,18.6,15.9H394c-0.8-5.2-4.8-8.6-10-8.6c-6.7,0-11,5.6-11,14.6
	c0,9,4.2,14.6,11,14.6c5.3,0,9-3.1,10-8.1h8.7C401.6,757.2,394.4,763.2,384,763.2z M421.8,763.1c-9.5,0-15.6-6.1-15.6-16.5
	c0-10.2,6.1-16.4,15.6-16.4c9.5,0,15.6,6.1,15.6,16.4C437.4,757.1,431.3,763.1,421.8,763.1z M421.8,756.6c4.2,0,6.9-3.6,6.9-9.9
	c0-6.3-2.7-9.9-6.9-9.9c-4.1,0-6.9,3.6-6.9,9.9C414.9,753.1,417.6,756.6,421.8,756.6z M441.8,762.5V731h8.3v5.6h0.2
	c1.7-3.9,5-6.2,9.9-6.2c7,0,10.9,4.4,10.9,11.8v20.3h-8.6v-18.5c0-4.1-1.9-6.5-5.7-6.5c-3.9,0-6.3,2.8-6.3,6.9v18.1L441.8,762.5
	L441.8,762.5z M476.5,762.5V731h8.3v5.6h0.2c1.7-3.9,5-6.2,9.9-6.2c7,0,10.9,4.4,10.9,11.8v20.3h-8.6v-18.5c0-4.1-1.9-6.5-5.7-6.5
	s-6.3,2.8-6.3,6.9v18.1L476.5,762.5L476.5,762.5z M525.3,736.7c-3.8,0-6.5,2.8-6.8,6.8h13.4C531.7,739.4,529.1,736.7,525.3,736.7z
	 M532,752.9h7.9c-0.9,6.1-6.6,10.4-14.3,10.4c-9.7,0-15.5-6.2-15.5-16.3s5.8-16.6,15.2-16.6c9.1,0,15,6.2,15,15.7v2.6h-21.7v0.6
	c0,4.5,2.8,7.6,7.2,7.6C528.8,756.8,531.2,755.2,532,752.9z M573.1,742.7h-8c-0.5-3.3-2.7-5.6-6.2-5.6c-4.2,0-6.9,3.6-6.9,9.6
	c0,6.2,2.6,9.7,6.9,9.7c3.5,0,5.6-2.1,6.2-5.5h8c-0.5,7.4-6,12.2-14.3,12.2c-9.5,0-15.5-6.1-15.5-16.5c0-10.1,6-16.4,15.4-16.4
	C567.4,730.3,572.8,735.6,573.1,742.7z M579.6,723.7h8.6v7.2h5.8v6.5h-5.8v15.1c0,2.4,1.1,3.6,3.7,3.6c0.8,0,1.6,0,2.1-0.2v6.3
	c-0.8,0.2-2.4,0.4-4.1,0.4c-7.4,0-10.3-2.4-10.3-8.6v-16.5h-4.3V731h4.4V723.7L579.6,723.7z"/>
<path id="WalletConnect_00000073703063438220642730000002917717552236472496_" fill="#3B99FC" d="M31.9,712.2
	c25.4-24.9,66.6-24.9,92,0l3,3c1.3,1.2,1.3,3.3,0,4.5L116.5,730c-0.7,0.6-1.7,0.6-2.3,0l-4.2-4.1c-17.7-17.3-46.4-17.3-64.2,0
	l-4.5,4.4c-0.7,0.6-1.7,0.6-2.3,0l-10.5-10.2c-1.3-1.2-1.3-3.3,0-4.5L31.9,712.2z M145.6,733.4l9.3,9.1c1.3,1.2,1.3,3.3,0,4.5
	l-42,41.1c-1.3,1.2-3.3,1.2-4.6,0l0,0L78.5,759c-0.3-0.3-0.8-0.3-1.1,0l0,0l-29.8,29.2c-1.3,1.2-3.3,1.2-4.6,0l0,0L0.9,747
	c-1.3-1.2-1.3-3.3,0-4.5l9.3-9.1c1.3-1.2,3.3-1.2,4.6,0l29.8,29.2c0.3,0.3,0.8,0.3,1.1,0l0,0l29.8-29.2c1.3-1.2,3.3-1.2,4.6,0l0,0
	l29.8,29.2c0.3,0.3,0.8,0.3,1.1,0l29.8-29.2C142.2,732.2,144.2,732.2,145.6,733.4z"/>
</svg>
